<?xml version="1.0" encoding="UTF-8" standalone="no"?>
<!-- Generator: Adobe Illustrator 14.0.0, SVG Export Plug-In . SVG Version: 6.00 Build 43363)  -->

<svg
   xmlns:dc="http://purl.org/dc/elements/1.1/"
   xmlns:cc="http://creativecommons.org/ns#"
   xmlns:rdf="http://www.w3.org/1999/02/22-rdf-syntax-ns#"
   xmlns:svg="http://www.w3.org/2000/svg"
   xmlns="http://www.w3.org/2000/svg"
   xmlns:xlink="http://www.w3.org/1999/xlink"
   xmlns:sodipodi="http://sodipodi.sourceforge.net/DTD/sodipodi-0.dtd"
   xmlns:inkscape="http://www.inkscape.org/namespaces/inkscape"
   version="1.1"
   x="0px"
   y="0px"
   width="24"
   height="24"
   viewBox="0 0 24 24"
   enable-background="new 0 0 960 850"
   xml:space="preserve"
   id="svg3788"
   inkscape:version="0.91 r13725"
   sodipodi:docname="pause.svg"><metadata
     id="metadata4200"><rdf:RDF><cc:Work
         rdf:about=""><dc:format>image/svg+xml</dc:format><dc:type
           rdf:resource="http://purl.org/dc/dcmitype/StillImage" /><dc:title></dc:title></cc:Work></rdf:RDF></metadata><defs
     id="defs4198" /><sodipodi:namedview
     pagecolor="#ffffff"
     bordercolor="#666666"
     borderopacity="1"
     objecttolerance="10"
     gridtolerance="10"
     guidetolerance="10"
     inkscape:pageopacity="0"
     inkscape:pageshadow="2"
     inkscape:window-width="1558"
     inkscape:window-height="1014"
     id="namedview4196"
     showgrid="false"
     inkscape:zoom="2.0381313"
     inkscape:cx="128.31484"
     inkscape:cy="-1.1605248"
     inkscape:window-x="0"
     inkscape:window-y="0"
     inkscape:window-maximized="0"
     inkscape:current-layer="layer4"
     fit-margin-top="0"
     fit-margin-left="0"
     fit-margin-right="0"
     fit-margin-bottom="0" /><g
     id="Layer_1"
     display="none"
     style="display:none"
     transform="translate(-64.872,-112.359)"><image
       sodipodi:absref="/Users/jloi/code/chooAudio/footages/5EF3A0A5.png"
       xlink:href="file:///Users/jloi/code/chooAudio/footages/5EF3A0A5.png"
       style="display:inline;overflow:visible"
       id="image3791"
       transform="translate(99.0552,0)"
       height="645"
       width="1079"
       overflow="visible"
       display="inline" /></g><g
     inkscape:groupmode="layer"
     id="layer4"
     inkscape:label="pause"
     style="display:inline"><g
       transform="translate(-105.846,-142.467)"
       id="g4156"><path
         id="video-15_1_"
         d="m 117.846,144.467 c 5.514,0 10,4.486 10,10 0,5.515 -4.486,10 -10,10 -5.514,0 -10,-4.485 -10,-10 0,-5.513 4.487,-10 10,-10 z m 0,-2 c -6.627,0 -12,5.373 -12,12 0,6.627 5.373,12 12,12 6.627,0 12,-5.373 12,-12 0,-6.627 -5.373,-12 -12,-12 z"
         inkscape:connector-curvature="0"
         style="fill:#c3b600" /><path
         id="media-control-5"
         d="m 116.437,159.924 -2.729,0 0,-10.914 2.729,0 0,10.914 z m 5.547,-10.914 -2.729,0 0,10.914 2.729,0 0,-10.914 z"
         inkscape:connector-curvature="0"
         style="fill:#c3b600" /></g></g></svg>