<?xml version="1.0" encoding="UTF-8" standalone="no"?>
<!-- Generator: Adobe Illustrator 14.0.0, SVG Export Plug-In . SVG Version: 6.00 Build 43363)  -->

<svg
   xmlns:dc="http://purl.org/dc/elements/1.1/"
   xmlns:cc="http://creativecommons.org/ns#"
   xmlns:rdf="http://www.w3.org/1999/02/22-rdf-syntax-ns#"
   xmlns:svg="http://www.w3.org/2000/svg"
   xmlns="http://www.w3.org/2000/svg"
   xmlns:xlink="http://www.w3.org/1999/xlink"
   xmlns:sodipodi="http://sodipodi.sourceforge.net/DTD/sodipodi-0.dtd"
   xmlns:inkscape="http://www.inkscape.org/namespaces/inkscape"
   version="1.1"
   x="0px"
   y="0px"
   width="24"
   height="24"
   viewBox="0 0 24 24"
   enable-background="new 0 0 960 850"
   xml:space="preserve"
   id="svg3788"
   inkscape:version="0.91 r13725"
   sodipodi:docname="chooboxExports.svg"><metadata
     id="metadata4200"><rdf:RDF><cc:Work
         rdf:about=""><dc:format>image/svg+xml</dc:format><dc:type
           rdf:resource="http://purl.org/dc/dcmitype/StillImage" /><dc:title></dc:title></cc:Work></rdf:RDF></metadata><defs
     id="defs4198" /><sodipodi:namedview
     pagecolor="#ffffff"
     bordercolor="#666666"
     borderopacity="1"
     objecttolerance="10"
     gridtolerance="10"
     guidetolerance="10"
     inkscape:pageopacity="0"
     inkscape:pageshadow="2"
     inkscape:window-width="1558"
     inkscape:window-height="1014"
     id="namedview4196"
     showgrid="false"
     inkscape:zoom="2.0381313"
     inkscape:cx="128.31484"
     inkscape:cy="-1.1605248"
     inkscape:window-x="0"
     inkscape:window-y="0"
     inkscape:window-maximized="0"
     inkscape:current-layer="layer9"
     fit-margin-top="0"
     fit-margin-left="0"
     fit-margin-right="0"
     fit-margin-bottom="0" /><g
     inkscape:groupmode="layer"
     id="layer9"
     inkscape:label="wave1"
     style="display:none;opacity:0.98000004"><path
       id="audio-5"
       d="m 7.422,15.27 -3.27,0 0,-6.54 3.27,0 0,6.54 z m 1.308,-6.54 0,6.54 5.886,3.27 0,-13.08 -5.886,3.27 z m 11.118,2.616 -3.27,0 0,1.308 3.27,0 0,-1.308 z M 18.812,7.27 15.979,8.905 16.633,10.038 19.466,8.403 18.812,7.27 Z m 0.654,8.327 -2.833,-1.635 -0.654,1.132 2.833,1.635 0.654,-1.132 z"
       inkscape:connector-curvature="0"
       style="display:inline;fill:#f6905d" /></g><g
     inkscape:groupmode="layer"
     id="layer8"
     inkscape:label="stop"
     style="display:none"><g
       transform="translate(-182.552,-112.359)"
       style="display:inline"
       id="g3823"><g
         id="g3825"><rect
           x="190.703"
           y="120.51"
           width="7.697"
           height="7.697"
           id="rect3827"
           style="fill:#5f6062" /><path
           d="m 194.552,112.359 c -6.627,0 -12,5.373 -12,12 0,6.627 5.373,12 12,12 6.627,0 12,-5.373 12,-12 0,-6.627 -5.373,-12 -12,-12 z m 0,22 c -5.514,0 -10,-4.485 -10,-10 0,-5.514 4.486,-10 10,-10 5.514,0 10,4.486 10,10 0,5.515 -4.487,10 -10,10 z"
           id="path3829"
           inkscape:connector-curvature="0"
           style="fill:#5f6062" /></g></g></g><g
     inkscape:groupmode="layer"
     id="layer6"
     inkscape:label="nextStep"
     style="display:none"><g
       style="display:inline"
       transform="translate(-144.84,-112.359)"
       id="g3853"><g
         id="g3855"><path
           d="m 159.721,124.359 -7.407,4.938 0,-9.876 7.407,4.938 z m 1.646,-4.526 -1.646,0 0,9.053 1.646,0 0,-9.053 z"
           id="path3857"
           inkscape:connector-curvature="0"
           style="fill:#5f6062" /><path
           d="m 144.84,124.359 c 0,6.627 5.373,12 12,12 6.627,0 12,-5.373 12,-12 0,-6.627 -5.373,-12 -12,-12 -6.627,0 -12,5.373 -12,12 z m 2,0 c 0,-5.514 4.486,-10 10,-10 5.514,0 10,4.486 10,10 0,5.515 -4.486,10 -10,10 -5.514,0 -10,-4.485 -10,-10 z"
           id="path3859"
           inkscape:connector-curvature="0"
           style="fill:#5f6062" /></g></g></g><g
     id="Layer_1"
     display="none"
     style="display:none"
     transform="translate(-64.872,-112.359)"><image
       sodipodi:absref="/Users/jloi/code/chooAudio/footages/5EF3A0A5.png"
       xlink:href="5EF3A0A5.png"
       style="display:inline;overflow:visible"
       id="image3791"
       transform="translate(99.0552,0)"
       height="645"
       width="1079"
       overflow="visible"
       display="inline" /></g><g
     inkscape:groupmode="layer"
     id="layer5"
     inkscape:label="prevStep"
     style="display:none"><g
       transform="translate(-64.872,-112.359)"
       id="g3845"><g
         id="g3847"><path
           d="m 81.398,119.421 0,9.876 -7.407,-4.938 7.407,-4.938 z m -9.053,9.465 1.646,0 0,-9.054 -1.646,0 0,9.054 z"
           id="path3849"
           inkscape:connector-curvature="0"
           style="fill:#5f6062" /><path
           d="m 76.872,112.359 c -6.627,0 -12,5.373 -12,12 0,6.627 5.373,12 12,12 6.627,0 12,-5.373 12,-12 0,-6.627 -5.373,-12 -12,-12 z m 0,22 c -5.514,0 -10,-4.485 -10,-10 0,-5.514 4.486,-10 10,-10 5.514,0 10,4.486 10,10 0,5.515 -4.486,10 -10,10 z"
           id="path3851"
           inkscape:connector-curvature="0"
           style="fill:#5f6062" /></g></g></g><g
     inkscape:groupmode="layer"
     id="layer4"
     inkscape:label="pause"
     style="display:none"><g
       transform="translate(-105.846,-142.467)"
       id="g4156"><path
         id="video-15_1_"
         d="m 117.846,144.467 c 5.514,0 10,4.486 10,10 0,5.515 -4.486,10 -10,10 -5.514,0 -10,-4.485 -10,-10 0,-5.513 4.487,-10 10,-10 z m 0,-2 c -6.627,0 -12,5.373 -12,12 0,6.627 5.373,12 12,12 6.627,0 12,-5.373 12,-12 0,-6.627 -5.373,-12 -12,-12 z"
         inkscape:connector-curvature="0"
         style="fill:#c3b600" /><path
         id="media-control-5"
         d="m 116.437,159.924 -2.729,0 0,-10.914 2.729,0 0,10.914 z m 5.547,-10.914 -2.729,0 0,10.914 2.729,0 0,-10.914 z"
         inkscape:connector-curvature="0"
         style="fill:#c3b600" /></g></g><g
     inkscape:groupmode="layer"
     id="layer3"
     inkscape:label="play"
     style="display:none"><path
       id="video-15"
       d="M 12,2 C 17.514,2 22,6.486 22,12 22,17.515 17.514,22 12,22 6.486,22 2,17.515 2,12 2,6.486 6.487,2 12,2 Z M 12,0 C 5.373,0 0,5.373 0,12 0,18.627 5.373,24 12,24 18.627,24 24,18.627 24,12 24,5.373 18.627,0 12,0 Z M 9,17 9,7 18,12.146 9,17 Z"
       inkscape:connector-curvature="0"
       style="fill:#c3b600" /></g></svg>