<?xml version="1.0" encoding="UTF-8" standalone="no"?>
<!-- Generator: Adobe Illustrator 14.0.0, SVG Export Plug-In . SVG Version: 6.00 Build 43363)  -->

<svg
   xmlns:dc="http://purl.org/dc/elements/1.1/"
   xmlns:cc="http://creativecommons.org/ns#"
   xmlns:rdf="http://www.w3.org/1999/02/22-rdf-syntax-ns#"
   xmlns:svg="http://www.w3.org/2000/svg"
   xmlns="http://www.w3.org/2000/svg"
   xmlns:xlink="http://www.w3.org/1999/xlink"
   xmlns:sodipodi="http://sodipodi.sourceforge.net/DTD/sodipodi-0.dtd"
   xmlns:inkscape="http://www.inkscape.org/namespaces/inkscape"
   version="1.1"
   x="0px"
   y="0px"
   width="24"
   height="24"
   viewBox="0 0 24 24"
   enable-background="new 0 0 960 850"
   xml:space="preserve"
   id="svg3788"
   inkscape:version="0.91 r13725"
   sodipodi:docname="chooboxIcons.svg"><metadata
     id="metadata4200"><rdf:RDF><cc:Work
         rdf:about=""><dc:format>image/svg+xml</dc:format><dc:type
           rdf:resource="http://purl.org/dc/dcmitype/StillImage" /><dc:title></dc:title></cc:Work></rdf:RDF></metadata><defs
     id="defs4198" /><sodipodi:namedview
     pagecolor="#ffffff"
     bordercolor="#666666"
     borderopacity="1"
     objecttolerance="10"
     gridtolerance="10"
     guidetolerance="10"
     inkscape:pageopacity="0"
     inkscape:pageshadow="2"
     inkscape:window-width="1558"
     inkscape:window-height="1014"
     id="namedview4196"
     showgrid="false"
     inkscape:zoom="2.0381313"
     inkscape:cx="128.31484"
     inkscape:cy="-1.1605248"
     inkscape:window-x="0"
     inkscape:window-y="0"
     inkscape:window-maximized="0"
     inkscape:current-layer="layer7"
     fit-margin-top="0"
     fit-margin-left="0"
     fit-margin-right="0"
     fit-margin-bottom="0" /><g
     inkscape:groupmode="layer"
     id="layer7"
     inkscape:label="all"
     style="display:inline"><g
       style="display:inline"
       id="Layer_2"
       transform="translate(-64.872,-112.359)"><path
         d="m 852.506,188.482 c -4.529,0 -8.201,3.672 -8.201,8.201 0,4.529 3.672,8.201 8.201,8.201 4.527,0 8.199,-3.672 8.199,-8.201 0,-4.529 -3.672,-8.201 -8.199,-8.201 z"
         id="path3794"
         inkscape:connector-curvature="0"
         style="fill:#9fa1a4" /><rect
         x="264.70874"
         y="62.242714"
         width="142.67999"
         height="27.583"
         id="rect3796"
         style="fill:none" /><text
         font-size="36"
         id="text3798"
         x="264.70883"
         y="88.270111"
         style="font-size:36px;font-family:PatuaOne-Regular;fill:#5f6062">ChooBox</text>
<rect
         x="282.37201"
         y="116.127"
         width="42.880001"
         height="26.34"
         id="rect3800"
         style="fill:none" /><text
         font-size="21"
         id="text3802"
         x="267.80066"
         y="120.90144"
         style="font-size:21px;font-family:PatuaOne-Regular;fill:#9fa1a4">bpm</text>
<g
         id="g3804"><rect
           x="229.508"
           y="382.806"
           width="8.158"
           height="9.5380001"
           id="rect3806"
           style="fill:none" /><text
           transform="translate(229.5083,390.4058)"
           font-size="10"
           id="text3808"
           style="font-size:10px;font-family:OpenSans-Bold;fill:#616368">1</text>
</g><rect
         x="67.431999"
         y="431.83099"
         width="76.641998"
         height="26.34"
         id="rect3810"
         style="fill:none" /><text
         transform="translate(67.4316,447.0132)"
         font-size="21"
         id="text3812"
         style="font-size:21px;font-family:PatuaOne-Regular;fill:#9fa1a4">pattern</text>
<rect
         x="337.104"
         y="116.127"
         width="42.880001"
         height="26.34"
         id="rect3814"
         style="fill:none" /><text
         font-size="21"
         id="text3816"
         x="330.16522"
         y="121.59531"
         style="font-size:21px;font-family:PatuaOne-Regular;fill:#c3b600">150</text>
<rect
         x="420.39575"
         y="69.742714"
         width="204.959"
         height="27.583"
         id="rect3818"
         style="fill:none" /><text
         font-size="25"
         id="text3820"
         x="420.39584"
         y="88.742218"
         style="font-size:25px;font-family:OpenSans;fill:#9fa1a4">Modem love</text>
<rect
         id="media-control-9_2_"
         x="848.14801"
         y="194.88901"
         width="8.7130003"
         height="3.5880001"
         style="fill:#ffffff" /><path
         d="m 852.506,226.242 c -4.529,0 -8.201,3.672 -8.201,8.201 0,4.529 3.672,8.201 8.201,8.201 4.527,0 8.199,-3.672 8.199,-8.201 0,-4.529 -3.672,-8.201 -8.199,-8.201 z"
         id="path3832"
         inkscape:connector-curvature="0"
         style="fill:#9fa1a4" /><rect
         id="media-control-9_3_"
         x="848.14801"
         y="232.649"
         width="8.7130003"
         height="3.5880001"
         style="fill:#ffffff" /><path
         d="m 852.506,264.002 c -4.529,0 -8.201,3.672 -8.201,8.201 0,4.529 3.672,8.201 8.201,8.201 4.527,0 8.199,-3.672 8.199,-8.201 0,-4.529 -3.672,-8.201 -8.199,-8.201 z"
         id="path3835"
         inkscape:connector-curvature="0"
         style="fill:#9fa1a4" /><rect
         id="media-control-9_4_"
         x="848.14801"
         y="270.409"
         width="8.7130003"
         height="3.5880001"
         style="fill:#ffffff" /><path
         d="m 852.506,301.763 c -4.529,0 -8.201,3.672 -8.201,8.201 0,4.529 3.672,8.201 8.201,8.201 4.527,0 8.199,-3.672 8.199,-8.201 0,-4.529 -3.672,-8.201 -8.199,-8.201 z"
         id="path3838"
         inkscape:connector-curvature="0"
         style="fill:#9fa1a4" /><rect
         id="media-control-9_5_"
         x="848.14801"
         y="308.16901"
         width="8.7130003"
         height="3.5880001"
         style="fill:#ffffff" /><path
         d="m 852.506,339.523 c -4.529,0 -8.201,3.672 -8.201,8.201 0,4.529 3.672,8.201 8.201,8.201 4.527,0 8.199,-3.672 8.199,-8.201 0,-4.529 -3.672,-8.201 -8.199,-8.201 z"
         id="path3841"
         inkscape:connector-curvature="0"
         style="fill:#9fa1a4" /><rect
         id="media-control-9_6_"
         x="848.14801"
         y="345.92999"
         width="8.7130003"
         height="3.5880001"
         style="fill:#ffffff" /><rect
         id="media-control-9_7_"
         x="850.711"
         y="343.367"
         width="3.5880001"
         height="8.7130003"
         style="fill:#ffffff" /><path
         id="arrow-41_1_"
         d="m 168.969,197.741 -4.938,-5.407 9.876,0 -4.938,5.407 z"
         inkscape:connector-curvature="0"
         style="fill:#d6d8d9" /><path
         id="arrow-41_2_"
         d="m 168.969,236.064 -4.938,-5.407 9.876,0 -4.938,5.407 z"
         inkscape:connector-curvature="0"
         style="fill:#d6d8d9" /><path
         id="arrow-41_5_"
         d="m 168.969,274.388 -4.938,-5.407 9.876,0 -4.938,5.407 z"
         inkscape:connector-curvature="0"
         style="fill:#d6d8d9" /><path
         id="arrow-41_6_"
         d="m 168.969,312.712 -4.938,-5.407 9.876,0 -4.938,5.407 z"
         inkscape:connector-curvature="0"
         style="fill:#d6d8d9" /><path
         id="arrow-41_7_"
         stroke-miterlimit="10"
         d="m 168.969,350.427 -4.938,-5.407 9.876,0 -4.938,5.407 z"
         inkscape:connector-curvature="0"
         style="fill:none;stroke:#616368;stroke-width:0.5;stroke-miterlimit:10" /><rect
         x="99.486"
         y="189.08299"
         width="60.720001"
         height="12.884"
         id="rect3866"
         style="fill:#d6d8d9" /><circle
         cx="232.64101"
         cy="196.44299"
         r="8.6409998"
         id="circle3868"
         style="fill:#9fa1a4" /><circle
         cx="270.29001"
         cy="196.44299"
         r="8.6409998"
         id="circle3870"
         style="fill:#9fa1a4" /><circle
         cx="307.939"
         cy="196.44299"
         r="8.6409998"
         id="circle3872"
         style="fill:#9fa1a4" /><path
         d="m 345.588,187.802 c -4.772,0 -8.641,3.868 -8.641,8.641 0,4.772 3.869,8.641 8.641,8.641 4.772,0 8.641,-3.869 8.641,-8.641 0,-4.773 -3.869,-8.641 -8.641,-8.641 z m 0,13.448 c -2.655,0 -4.807,-2.152 -4.807,-4.807 0,-2.655 2.152,-4.807 4.807,-4.807 2.655,0 4.807,2.152 4.807,4.807 0,2.655 -2.152,4.807 -4.807,4.807 z"
         id="path3874"
         inkscape:connector-curvature="0"
         style="fill:#9fa1a4" /><path
         d="m 496.184,187.802 c -4.771,0 -8.641,3.868 -8.641,8.641 0,4.772 3.869,8.641 8.641,8.641 4.772,0 8.641,-3.869 8.641,-8.641 -10e-4,-4.773 -3.87,-8.641 -8.641,-8.641 z m 0,13.448 c -2.654,0 -4.807,-2.152 -4.807,-4.807 0,-2.655 2.152,-4.807 4.807,-4.807 2.655,0 4.807,2.152 4.807,4.807 -10e-4,2.655 -2.153,4.807 -4.807,4.807 z"
         id="path3876"
         inkscape:connector-curvature="0"
         style="fill:#f6905d" /><path
         d="m 646.777,187.802 c -4.773,0 -8.641,3.868 -8.641,8.641 0,4.772 3.867,8.641 8.641,8.641 4.771,0 8.641,-3.869 8.641,-8.641 0,-4.773 -3.869,-8.641 -8.641,-8.641 z m 0,13.448 c -2.656,0 -4.809,-2.152 -4.809,-4.807 0,-2.655 2.152,-4.807 4.809,-4.807 2.654,0 4.807,2.152 4.807,4.807 0,2.655 -2.152,4.807 -4.807,4.807 z"
         id="path3878"
         inkscape:connector-curvature="0"
         style="fill:#9fa1a4" /><path
         d="m 797.371,187.802 c -4.773,0 -8.641,3.868 -8.641,8.641 0,4.772 3.867,8.641 8.641,8.641 4.771,0 8.641,-3.869 8.641,-8.641 0,-4.773 -3.869,-8.641 -8.641,-8.641 z m 0,13.448 c -2.656,0 -4.809,-2.152 -4.809,-4.807 0,-2.655 2.152,-4.807 4.809,-4.807 2.654,0 4.807,2.152 4.807,4.807 0,2.655 -2.153,4.807 -4.807,4.807 z"
         id="path3880"
         inkscape:connector-curvature="0"
         style="fill:#f6905d" /><path
         d="m 345.588,225.802 c -4.772,0 -8.641,3.868 -8.641,8.641 0,4.772 3.869,8.641 8.641,8.641 4.772,0 8.641,-3.869 8.641,-8.641 0,-4.773 -3.869,-8.641 -8.641,-8.641 z m 0,13.448 c -2.655,0 -4.807,-2.152 -4.807,-4.807 0,-2.655 2.152,-4.807 4.807,-4.807 2.655,0 4.807,2.152 4.807,4.807 0,2.655 -2.152,4.807 -4.807,4.807 z"
         id="path3882"
         inkscape:connector-curvature="0"
         style="fill:#deb408" /><path
         d="m 496.184,225.802 c -4.771,0 -8.641,3.868 -8.641,8.641 0,4.772 3.869,8.641 8.641,8.641 4.772,0 8.641,-3.869 8.641,-8.641 -10e-4,-4.773 -3.87,-8.641 -8.641,-8.641 z m 0,13.448 c -2.654,0 -4.807,-2.152 -4.807,-4.807 0,-2.655 2.152,-4.807 4.807,-4.807 2.655,0 4.807,2.152 4.807,4.807 -10e-4,2.655 -2.153,4.807 -4.807,4.807 z"
         id="path3884"
         inkscape:connector-curvature="0"
         style="fill:#9fa1a4" /><path
         d="m 646.777,225.802 c -4.773,0 -8.641,3.868 -8.641,8.641 0,4.772 3.867,8.641 8.641,8.641 4.771,0 8.641,-3.869 8.641,-8.641 0,-4.773 -3.869,-8.641 -8.641,-8.641 z m 0,13.448 c -2.656,0 -4.809,-2.152 -4.809,-4.807 0,-2.655 2.152,-4.807 4.809,-4.807 2.654,0 4.807,2.152 4.807,4.807 0,2.655 -2.152,4.807 -4.807,4.807 z"
         id="path3886"
         inkscape:connector-curvature="0"
         style="fill:#deb408" /><path
         d="m 797.371,225.802 c -4.773,0 -8.641,3.868 -8.641,8.641 0,4.772 3.867,8.641 8.641,8.641 4.771,0 8.641,-3.869 8.641,-8.641 0,-4.773 -3.869,-8.641 -8.641,-8.641 z m 0,13.448 c -2.656,0 -4.809,-2.152 -4.809,-4.807 0,-2.655 2.152,-4.807 4.809,-4.807 2.654,0 4.807,2.152 4.807,4.807 0,2.655 -2.153,4.807 -4.807,4.807 z"
         id="path3888"
         inkscape:connector-curvature="0"
         style="fill:#9fa1a4" /><path
         d="m 345.588,263.802 c -4.772,0 -8.641,3.868 -8.641,8.641 0,4.772 3.869,8.641 8.641,8.641 4.772,0 8.641,-3.869 8.641,-8.641 0,-4.773 -3.869,-8.641 -8.641,-8.641 z m 0,13.448 c -2.655,0 -4.807,-2.152 -4.807,-4.807 0,-2.655 2.152,-4.807 4.807,-4.807 2.655,0 4.807,2.152 4.807,4.807 0,2.655 -2.152,4.807 -4.807,4.807 z"
         id="path3890"
         inkscape:connector-curvature="0"
         style="fill:#9fa1a4" /><path
         d="m 496.184,263.802 c -4.771,0 -8.641,3.868 -8.641,8.641 0,4.772 3.869,8.641 8.641,8.641 4.772,0 8.641,-3.869 8.641,-8.641 -10e-4,-4.773 -3.87,-8.641 -8.641,-8.641 z m 0,13.448 c -2.654,0 -4.807,-2.152 -4.807,-4.807 0,-2.655 2.152,-4.807 4.807,-4.807 2.655,0 4.807,2.152 4.807,4.807 -10e-4,2.655 -2.153,4.807 -4.807,4.807 z"
         id="path3892"
         inkscape:connector-curvature="0"
         style="fill:#9fa1a4" /><path
         d="m 646.777,263.802 c -4.773,0 -8.641,3.868 -8.641,8.641 0,4.772 3.867,8.641 8.641,8.641 4.771,0 8.641,-3.869 8.641,-8.641 0,-4.773 -3.869,-8.641 -8.641,-8.641 z m 0,13.448 c -2.656,0 -4.809,-2.152 -4.809,-4.807 0,-2.655 2.152,-4.807 4.809,-4.807 2.654,0 4.807,2.152 4.807,4.807 0,2.655 -2.152,4.807 -4.807,4.807 z"
         id="path3894"
         inkscape:connector-curvature="0"
         style="fill:#9fa1a4" /><path
         d="m 797.371,263.802 c -4.773,0 -8.641,3.868 -8.641,8.641 0,4.772 3.867,8.641 8.641,8.641 4.771,0 8.641,-3.869 8.641,-8.641 0,-4.773 -3.869,-8.641 -8.641,-8.641 z m 0,13.448 c -2.656,0 -4.809,-2.152 -4.809,-4.807 0,-2.655 2.152,-4.807 4.809,-4.807 2.654,0 4.807,2.152 4.807,4.807 0,2.655 -2.153,4.807 -4.807,4.807 z"
         id="path3896"
         inkscape:connector-curvature="0"
         style="fill:#9fa1a4" /><path
         d="m 345.588,301.802 c -4.772,0 -8.641,3.868 -8.641,8.641 0,4.772 3.869,8.641 8.641,8.641 4.772,0 8.641,-3.869 8.641,-8.641 0,-4.773 -3.869,-8.641 -8.641,-8.641 z m 0,13.448 c -2.655,0 -4.807,-2.152 -4.807,-4.807 0,-2.655 2.152,-4.807 4.807,-4.807 2.655,0 4.807,2.152 4.807,4.807 0,2.655 -2.152,4.807 -4.807,4.807 z"
         id="path3898"
         inkscape:connector-curvature="0"
         style="fill:#005581" /><path
         d="m 496.184,301.802 c -4.771,0 -8.641,3.868 -8.641,8.641 0,4.772 3.869,8.641 8.641,8.641 4.772,0 8.641,-3.869 8.641,-8.641 -10e-4,-4.773 -3.87,-8.641 -8.641,-8.641 z m 0,13.448 c -2.654,0 -4.807,-2.152 -4.807,-4.807 0,-2.655 2.152,-4.807 4.807,-4.807 2.655,0 4.807,2.152 4.807,4.807 -10e-4,2.655 -2.153,4.807 -4.807,4.807 z"
         id="path3900"
         inkscape:connector-curvature="0"
         style="fill:#005581" /><path
         d="m 646.777,301.802 c -4.773,0 -8.641,3.868 -8.641,8.641 0,4.772 3.867,8.641 8.641,8.641 4.771,0 8.641,-3.869 8.641,-8.641 0,-4.773 -3.869,-8.641 -8.641,-8.641 z m 0,13.448 c -2.656,0 -4.809,-2.152 -4.809,-4.807 0,-2.655 2.152,-4.807 4.809,-4.807 2.654,0 4.807,2.152 4.807,4.807 0,2.655 -2.152,4.807 -4.807,4.807 z"
         id="path3902"
         inkscape:connector-curvature="0"
         style="fill:#9fa1a4" /><path
         d="m 797.371,301.802 c -4.773,0 -8.641,3.868 -8.641,8.641 0,4.772 3.867,8.641 8.641,8.641 4.771,0 8.641,-3.869 8.641,-8.641 0,-4.773 -3.869,-8.641 -8.641,-8.641 z m 0,13.448 c -2.656,0 -4.809,-2.152 -4.809,-4.807 0,-2.655 2.152,-4.807 4.809,-4.807 2.654,0 4.807,2.152 4.807,4.807 0,2.655 -2.153,4.807 -4.807,4.807 z"
         id="path3904"
         inkscape:connector-curvature="0"
         style="fill:#005581" /><circle
         cx="383.237"
         cy="196.44299"
         r="8.6409998"
         id="circle3906"
         style="fill:#9fa1a4" /><circle
         cx="420.88501"
         cy="196.44299"
         r="8.6400003"
         id="circle3908"
         style="fill:#9fa1a4" /><circle
         cx="458.534"
         cy="196.44299"
         r="8.6400003"
         id="circle3910"
         style="fill:#9fa1a4" /><circle
         cx="533.83099"
         cy="196.44299"
         r="8.6400003"
         id="circle3912"
         style="fill:#9fa1a4" /><circle
         cx="571.479"
         cy="196.44299"
         r="8.6400003"
         id="circle3914"
         style="fill:#9fa1a4" /><circle
         cx="609.12799"
         cy="196.44299"
         r="8.6400003"
         id="circle3916"
         style="fill:#9fa1a4" /><circle
         cx="684.42499"
         cy="196.44299"
         r="8.6400003"
         id="circle3918"
         style="fill:#9fa1a4" /><circle
         cx="722.073"
         cy="196.44299"
         r="8.6400003"
         id="circle3920"
         style="fill:#9fa1a4" /><circle
         cx="759.72198"
         cy="196.44299"
         r="8.6400003"
         id="circle3922"
         style="fill:#9fa1a4" /><rect
         x="99.486"
         y="227.08299"
         width="60.720001"
         height="12.884"
         id="rect3924"
         style="fill:#d6d8d9" /><circle
         cx="232.64101"
         cy="234.44299"
         r="8.6409998"
         id="circle3926"
         style="fill:#9fa1a4" /><circle
         cx="270.29001"
         cy="234.44299"
         r="8.6409998"
         id="circle3928"
         style="fill:#9fa1a4" /><circle
         cx="307.939"
         cy="234.44299"
         r="8.6409998"
         id="circle3930"
         style="fill:#deb408" /><circle
         cx="383.237"
         cy="234.44299"
         r="8.6409998"
         id="circle3932"
         style="fill:#9fa1a4" /><circle
         cx="420.88501"
         cy="234.44299"
         r="8.6400003"
         id="circle3934"
         style="fill:#deb408" /><circle
         cx="458.534"
         cy="234.44299"
         r="8.6400003"
         id="circle3936"
         style="fill:#9fa1a4" /><circle
         cx="533.83099"
         cy="234.44299"
         r="8.6400003"
         id="circle3938"
         style="fill:#9fa1a4" /><circle
         cx="571.479"
         cy="234.44299"
         r="8.6400003"
         id="circle3940"
         style="fill:#deb408" /><circle
         cx="609.12799"
         cy="234.44299"
         r="8.6400003"
         id="circle3942"
         style="fill:#9fa1a4" /><circle
         cx="684.42499"
         cy="234.44299"
         r="8.6400003"
         id="circle3944"
         style="fill:#9fa1a4" /><circle
         cx="722.073"
         cy="234.44299"
         r="8.6400003"
         id="circle3946"
         style="fill:#9fa1a4" /><circle
         cx="759.72198"
         cy="234.44299"
         r="8.6400003"
         id="circle3948"
         style="fill:#deb408" /><rect
         x="99.486"
         y="265.08301"
         width="60.720001"
         height="12.884"
         id="rect3950"
         style="fill:#d6d8d9" /><circle
         cx="232.64101"
         cy="272.44299"
         r="8.6409998"
         id="circle3952"
         style="fill:#9fa1a4" /><circle
         cx="270.29001"
         cy="272.44299"
         r="8.6409998"
         id="circle3954"
         style="fill:#9ed8d2" /><circle
         cx="307.939"
         cy="272.44299"
         r="8.6409998"
         id="circle3956"
         style="fill:#9fa1a4" /><circle
         cx="383.237"
         cy="272.44299"
         r="8.6409998"
         id="circle3958"
         style="fill:#9ed8d2" /><circle
         cx="420.88501"
         cy="272.44299"
         r="8.6400003"
         id="circle3960"
         style="fill:#9ed8d2" /><circle
         cx="458.534"
         cy="272.44299"
         r="8.6400003"
         id="circle3962"
         style="fill:#9fa1a4" /><circle
         cx="533.83099"
         cy="272.44299"
         r="8.6400003"
         id="circle3964"
         style="fill:#9ed8d2" /><circle
         cx="571.479"
         cy="272.44299"
         r="8.6400003"
         id="circle3966"
         style="fill:#9fa1a4" /><circle
         cx="609.12799"
         cy="272.44299"
         r="8.6400003"
         id="circle3968"
         style="fill:#9fa1a4" /><circle
         cx="684.42499"
         cy="272.44299"
         r="8.6400003"
         id="circle3970"
         style="fill:#9fa1a4" /><circle
         cx="722.073"
         cy="272.44299"
         r="8.6400003"
         id="circle3972"
         style="fill:#9ed8d2" /><circle
         cx="759.72198"
         cy="272.44299"
         r="8.6400003"
         id="circle3974"
         style="fill:#9fa1a4" /><rect
         x="99.486"
         y="303.08301"
         width="60.720001"
         height="12.884"
         id="rect3976"
         style="fill:#d6d8d9" /><circle
         cx="232.64101"
         cy="310.44299"
         r="8.6409998"
         id="circle3978"
         style="fill:#9fa1a4" /><g
         id="g3980"><g
           id="g3982"><g
             id="g3984"><rect
               x="267.211"
               y="382.806"
               width="8.158"
               height="9.5380001"
               id="rect3986"
               style="fill:none" /><text
               transform="translate(267.2109,390.4058)"
               font-size="10"
               id="text3988"
               style="font-size:10px;font-family:OpenSans-Bold;fill:#616368">2</text>
</g></g></g><g
         id="g3990"><g
           id="g3992"><g
             id="g3994"><rect
               x="304.85999"
               y="382.806"
               width="8.158"
               height="9.5380001"
               id="rect3996"
               style="fill:none" /><text
               transform="translate(304.8599,390.4058)"
               font-size="10"
               id="text3998"
               style="font-size:10px;font-family:OpenSans-Bold;fill:#616368">3</text>
</g></g></g><g
         id="g4000"><g
           id="g4002"><g
             id="g4004"><rect
               x="342.509"
               y="382.806"
               width="8.158"
               height="9.5380001"
               id="rect4006"
               style="fill:none" /><text
               transform="translate(342.5088,390.4058)"
               font-size="10"
               id="text4008"
               style="font-size:10px;font-family:OpenSans-Bold;fill:#616368">4</text>
</g></g></g><g
         id="g4010"><g
           id="g4012"><g
             id="g4014"><rect
               x="380.15799"
               y="382.806"
               width="8.158"
               height="9.5380001"
               id="rect4016"
               style="fill:none" /><text
               transform="translate(380.1577,390.4058)"
               font-size="10"
               id="text4018"
               style="font-size:10px;font-family:OpenSans-Bold;fill:#616368">5 </text>
</g></g></g><g
         id="g4020"><g
           id="g4022"><g
             id="g4024"><rect
               x="417.80701"
               y="382.806"
               width="8.158"
               height="9.5380001"
               id="rect4026"
               style="fill:none" /><text
               transform="translate(417.8066,390.4058)"
               font-size="10"
               id="text4028"
               style="font-size:10px;font-family:OpenSans-Bold;fill:#616368">6</text>
</g></g></g><g
         id="g4030"><g
           id="g4032"><g
             id="g4034"><rect
               x="455.45599"
               y="382.806"
               width="8.158"
               height="9.5380001"
               id="rect4036"
               style="fill:none" /><text
               transform="translate(455.4556,390.4058)"
               font-size="10"
               id="text4038"
               style="font-size:10px;font-family:OpenSans-Bold;fill:#616368">7</text>
</g></g></g><g
         id="g4040"><g
           id="g4042"><g
             id="g4044"><rect
               x="493.104"
               y="382.806"
               width="8.158"
               height="9.5380001"
               id="rect4046"
               style="fill:none" /><text
               transform="translate(493.1045,390.4058)"
               font-size="10"
               id="text4048"
               style="font-size:10px;font-family:OpenSans-Bold;fill:#616368">8</text>
</g></g></g><g
         id="g4050"><g
           id="g4052"><g
             id="g4054"><rect
               x="530.75403"
               y="382.806"
               width="8.158"
               height="9.5380001"
               id="rect4056"
               style="fill:none" /><text
               transform="translate(530.7539,390.4058)"
               font-size="10"
               id="text4058"
               style="font-size:10px;font-family:OpenSans-Bold;fill:#616368">9</text>
</g></g></g><g
         id="g4060"><g
           id="g4062"><g
             id="g4064"><rect
               x="565.40198"
               y="382.806"
               width="14.895"
               height="10.59"
               id="rect4066"
               style="fill:none" /><text
               transform="translate(565.4023,390.4058)"
               font-size="10"
               id="text4068"
               style="font-size:10px;font-family:OpenSans-Bold;fill:#616368">10</text>
</g></g></g><g
         id="g4070"><g
           id="g4072"><g
             id="g4074"><rect
               x="603.05103"
               y="382.806"
               width="15.113"
               height="9.5380001"
               id="rect4076"
               style="fill:none" /><text
               transform="translate(603.0508,390.4058)"
               font-size="10"
               id="text4078"
               style="font-size:10px;font-family:OpenSans-Bold;fill:#616368">11</text>
</g></g></g><g
         id="g4080"><g
           id="g4082"><g
             id="g4084"><rect
               x="640.69897"
               y="382.806"
               width="14.913"
               height="9.5380001"
               id="rect4086"
               style="fill:none" /><text
               transform="translate(640.6992,390.4058)"
               font-size="10"
               id="text4088"
               style="font-size:10px;font-family:OpenSans-Bold;fill:#616368">12</text>
</g></g></g><g
         id="g4090"><g
           id="g4092"><g
             id="g4094"><rect
               x="678.34802"
               y="382.806"
               width="18.184999"
               height="10.063"
               id="rect4096"
               style="fill:none" /><text
               transform="translate(678.3477,390.4058)"
               font-size="10"
               id="text4098"
               style="font-size:10px;font-family:OpenSans-Bold;fill:#616368">13</text>
</g></g></g><g
         id="g4100"><g
           id="g4102"><g
             id="g4104"><rect
               x="715.99597"
               y="382.806"
               width="16.091"
               height="10.063"
               id="rect4106"
               style="fill:none" /><text
               transform="translate(715.9961,390.4058)"
               font-size="10"
               id="text4108"
               style="font-size:10px;font-family:OpenSans-Bold;fill:#616368">14</text>
</g></g></g><g
         id="g4110"><g
           id="g4112"><g
             id="g4114"><rect
               x="753.64502"
               y="382.806"
               width="16.73"
               height="10.063"
               id="rect4116"
               style="fill:none" /><text
               transform="translate(753.6445,390.4058)"
               font-size="10"
               id="text4118"
               style="font-size:10px;font-family:OpenSans-Bold;fill:#616368">15</text>
</g></g></g><g
         id="g4120"><g
           id="g4122"><rect
             x="791.29303"
             y="382.806"
             width="19.686001"
             height="10.063"
             id="rect4124"
             style="fill:none" /><text
             transform="translate(791.293,390.4058)"
             font-size="10"
             id="text4126"
             style="font-size:10px;font-family:OpenSans-Bold;fill:#616368">16</text>
</g></g><circle
         cx="270.29001"
         cy="310.44299"
         r="8.6409998"
         id="circle4128"
         style="fill:#9fa1a4" /><circle
         cx="307.939"
         cy="310.44299"
         r="8.6409998"
         id="circle4130"
         style="fill:#005581" /><circle
         cx="383.237"
         cy="310.44299"
         r="8.6409998"
         id="circle4132"
         style="fill:#005581" /><circle
         cx="420.88501"
         cy="310.44299"
         r="8.6400003"
         id="circle4134"
         style="fill:#9fa1a4" /><circle
         cx="458.534"
         cy="310.44299"
         r="8.6400003"
         id="circle4136"
         style="fill:#9fa1a4" /><circle
         cx="533.83099"
         cy="310.44299"
         r="8.6400003"
         id="circle4138"
         style="fill:#9fa1a4" /><circle
         cx="571.479"
         cy="310.44299"
         r="8.6400003"
         id="circle4140"
         style="fill:#005581" /><circle
         cx="609.12799"
         cy="310.44299"
         r="8.6400003"
         id="circle4142"
         style="fill:#005581" /><circle
         cx="684.42499"
         cy="310.44299"
         r="8.6400003"
         id="circle4144"
         style="fill:#005581" /><circle
         cx="722.073"
         cy="310.44299"
         r="8.6400003"
         id="circle4146"
         style="fill:#9fa1a4" /><circle
         cx="759.72198"
         cy="310.44299"
         r="8.6400003"
         id="circle4148"
         style="fill:#9fa1a4" /><path
         id="menu-1"
         d="m 861.146,120.039 -17.281,0 0,-2.88 17.281,0 0,2.88 z m 0,2.88 -17.281,0 0,2.88 17.281,0 0,-2.88 z m 0,5.761 -17.281,0 0,2.88 17.281,0 0,-2.88 z"
         inkscape:connector-curvature="0"
         style="fill:#9fa1a4" /><path
         id="audio-9_2_"
         d="m 72.033,274.893 -3.367,0 0,-6.734 3.367,0 0,6.734 z m 1.347,-6.735 0,6.734 6.061,3.367 0,-13.469 -6.061,3.368 z m 10.32,3.363 1.109,-1.117 -0.892,-0.892 -1.112,1.125 -1.122,-1.109 -0.887,0.888 1.125,1.116 -1.111,1.125 0.888,0.886 1.117,-1.126 1.122,1.113 0.892,-0.892 -1.129,-1.117 z"
         inkscape:connector-curvature="0"
         style="fill:#9fa1a4" /><path
         id="audio-9_1_"
         d="m 72.033,312.893 -3.367,0 0,-6.734 3.367,0 0,6.734 z m 1.347,-6.735 0,6.734 6.061,3.367 0,-13.469 -6.061,3.368 z m 10.32,3.363 1.109,-1.117 -0.892,-0.892 -1.112,1.125 -1.122,-1.109 -0.887,0.888 1.125,1.116 -1.111,1.125 0.888,0.886 1.117,-1.126 1.122,1.113 0.892,-0.892 -1.129,-1.117 z"
         inkscape:connector-curvature="0"
         style="fill:#9fa1a4" /><path
         id="audio-9_3_"
         stroke-miterlimit="10"
         d="m 72.033,351.091 -3.367,0 0,-6.734 3.367,0 0,6.734 z m 1.347,-6.735 0,6.734 6.061,3.367 0,-13.469 -6.061,3.368 z"
         inkscape:connector-curvature="0"
         style="fill:none;stroke:#616368;stroke-width:0.5;stroke-miterlimit:10" /><path
         id="audio-5_1_"
         d="m 72.169,236.795 -3.27,0 0,-6.54 3.27,0 0,6.54 z m 1.308,-6.54 0,6.54 5.886,3.27 0,-13.08 -5.886,3.27 z m 11.118,2.617 -3.27,0 0,1.308 3.27,0 0,-1.308 z m -1.036,-4.076 -2.833,1.635 0.654,1.133 2.833,-1.635 -0.654,-1.133 z m 0.654,8.326 -2.833,-1.635 -0.654,1.132 2.833,1.635 0.654,-1.132 z"
         inkscape:connector-curvature="0"
         style="fill:#deb408" /><rect
         x="67.431999"
         y="463.51801"
         width="107.983"
         height="107.982"
         id="rect4160"
         style="opacity:0.68999999;fill:#d6d8d9" /><circle
         stroke-miterlimit="10"
         cx="797.53998"
         cy="347.724"
         r="8.5019999"
         id="circle4162"
         style="fill:none;stroke:#616368;stroke-width:0.5;stroke-miterlimit:10" /><circle
         stroke-miterlimit="10"
         cx="759.72198"
         cy="347.724"
         r="8.5019999"
         id="circle4164"
         style="fill:none;stroke:#616368;stroke-width:0.5;stroke-miterlimit:10" /><circle
         stroke-miterlimit="10"
         cx="721.90302"
         cy="347.724"
         r="8.5019999"
         id="circle4166"
         style="fill:none;stroke:#616368;stroke-width:0.5;stroke-miterlimit:10" /><circle
         stroke-miterlimit="10"
         cx="684.08502"
         cy="347.724"
         r="8.5019999"
         id="circle4168"
         style="fill:none;stroke:#616368;stroke-width:0.5;stroke-miterlimit:10" /><circle
         stroke-miterlimit="10"
         cx="646.26703"
         cy="347.724"
         r="8.5019999"
         id="circle4170"
         style="fill:none;stroke:#616368;stroke-width:0.5;stroke-miterlimit:10" /><circle
         stroke-miterlimit="10"
         cx="609.24902"
         cy="347.724"
         r="8.5019999"
         id="circle4172"
         style="fill:none;stroke:#616368;stroke-width:0.5;stroke-miterlimit:10" /><circle
         stroke-miterlimit="10"
         cx="571.25098"
         cy="347.103"
         r="8.5019999"
         id="circle4174"
         style="fill:none;stroke:#616368;stroke-width:0.5;stroke-miterlimit:10" /><circle
         stroke-miterlimit="10"
         cx="533.83197"
         cy="347.724"
         r="8.5019999"
         id="circle4176"
         style="fill:none;stroke:#616368;stroke-width:0.5;stroke-miterlimit:10" /><circle
         stroke-miterlimit="10"
         cx="496.18399"
         cy="347.724"
         r="8.5019999"
         id="circle4178"
         style="fill:none;stroke:#616368;stroke-width:0.5;stroke-miterlimit:10" /><circle
         stroke-miterlimit="10"
         cx="458.534"
         cy="347.724"
         r="8.5019999"
         id="circle4180"
         style="fill:none;stroke:#616368;stroke-width:0.5;stroke-miterlimit:10" /><circle
         stroke-miterlimit="10"
         cx="420.88599"
         cy="347.724"
         r="8.5019999"
         id="circle4182"
         style="fill:none;stroke:#616368;stroke-width:0.5;stroke-miterlimit:10" /><circle
         stroke-miterlimit="10"
         cx="383.237"
         cy="347.724"
         r="8.5019999"
         id="circle4184"
         style="fill:none;stroke:#616368;stroke-width:0.5;stroke-miterlimit:10" /><circle
         stroke-miterlimit="10"
         cx="345.58801"
         cy="347.724"
         r="8.5019999"
         id="circle4186"
         style="fill:none;stroke:#616368;stroke-width:0.5;stroke-miterlimit:10" /><circle
         stroke-miterlimit="10"
         cx="307.939"
         cy="347.724"
         r="8.5019999"
         id="circle4188"
         style="fill:none;stroke:#616368;stroke-width:0.5;stroke-miterlimit:10" /><circle
         stroke-miterlimit="10"
         cx="270.29001"
         cy="347.724"
         r="8.5019999"
         id="circle4190"
         style="fill:none;stroke:#616368;stroke-width:0.5;stroke-miterlimit:10" /><circle
         stroke-miterlimit="10"
         cx="232.64101"
         cy="347.724"
         r="8.5019999"
         id="circle4192"
         style="fill:none;stroke:#616368;stroke-width:0.5;stroke-miterlimit:10" /><rect
         x="99.486"
         y="341.28101"
         stroke-miterlimit="10"
         width="60.720001"
         height="12.884"
         id="rect4194"
         style="fill:none;stroke:#616368;stroke-width:0.5;stroke-miterlimit:10" /></g></g><g
     inkscape:groupmode="layer"
     id="layer9"
     inkscape:label="wave1"
     style="opacity:0.98"><path
       id="audio-5"
       d="m 7.422,15.27 -3.27,0 0,-6.54 3.27,0 0,6.54 z m 1.308,-6.54 0,6.54 5.886,3.27 0,-13.08 -5.886,3.27 z m 11.118,2.616 -3.27,0 0,1.308 3.27,0 0,-1.308 z M 18.812,7.27 15.979,8.905 16.633,10.038 19.466,8.403 18.812,7.27 Z m 0.654,8.327 -2.833,-1.635 -0.654,1.132 2.833,1.635 0.654,-1.132 z"
       inkscape:connector-curvature="0"
       style="display:inline;fill:#f6905d" /></g><g
     inkscape:groupmode="layer"
     id="layer8"
     inkscape:label="stop"
     style="display:none"><g
       transform="translate(-182.552,-112.359)"
       style="display:inline"
       id="g3823"><g
         id="g3825"><rect
           x="190.703"
           y="120.51"
           width="7.697"
           height="7.697"
           id="rect3827"
           style="fill:#5f6062" /><path
           d="m 194.552,112.359 c -6.627,0 -12,5.373 -12,12 0,6.627 5.373,12 12,12 6.627,0 12,-5.373 12,-12 0,-6.627 -5.373,-12 -12,-12 z m 0,22 c -5.514,0 -10,-4.485 -10,-10 0,-5.514 4.486,-10 10,-10 5.514,0 10,4.486 10,10 0,5.515 -4.487,10 -10,10 z"
           id="path3829"
           inkscape:connector-curvature="0"
           style="fill:#5f6062" /></g></g></g><g
     inkscape:groupmode="layer"
     id="layer6"
     inkscape:label="nextStep"
     style="display:none"><g
       style="display:inline"
       transform="translate(-144.84,-112.359)"
       id="g3853"><g
         id="g3855"><path
           d="m 159.721,124.359 -7.407,4.938 0,-9.876 7.407,4.938 z m 1.646,-4.526 -1.646,0 0,9.053 1.646,0 0,-9.053 z"
           id="path3857"
           inkscape:connector-curvature="0"
           style="fill:#5f6062" /><path
           d="m 144.84,124.359 c 0,6.627 5.373,12 12,12 6.627,0 12,-5.373 12,-12 0,-6.627 -5.373,-12 -12,-12 -6.627,0 -12,5.373 -12,12 z m 2,0 c 0,-5.514 4.486,-10 10,-10 5.514,0 10,4.486 10,10 0,5.515 -4.486,10 -10,10 -5.514,0 -10,-4.485 -10,-10 z"
           id="path3859"
           inkscape:connector-curvature="0"
           style="fill:#5f6062" /></g></g></g><g
     id="Layer_1"
     display="none"
     style="display:none"
     transform="translate(-64.872,-112.359)"><image
       sodipodi:absref="/Users/jloi/code/chooAudio/footages/5EF3A0A5.png"
       xlink:href="5EF3A0A5.png"
       style="display:inline;overflow:visible"
       id="image3791"
       transform="translate(99.0552,0)"
       height="645"
       width="1079"
       overflow="visible"
       display="inline" /></g><g
     inkscape:groupmode="layer"
     id="layer5"
     inkscape:label="prevStep"
     style="display:none"><g
       transform="translate(-64.872,-112.359)"
       id="g3845"><g
         id="g3847"><path
           d="m 81.398,119.421 0,9.876 -7.407,-4.938 7.407,-4.938 z m -9.053,9.465 1.646,0 0,-9.054 -1.646,0 0,9.054 z"
           id="path3849"
           inkscape:connector-curvature="0"
           style="fill:#5f6062" /><path
           d="m 76.872,112.359 c -6.627,0 -12,5.373 -12,12 0,6.627 5.373,12 12,12 6.627,0 12,-5.373 12,-12 0,-6.627 -5.373,-12 -12,-12 z m 0,22 c -5.514,0 -10,-4.485 -10,-10 0,-5.514 4.486,-10 10,-10 5.514,0 10,4.486 10,10 0,5.515 -4.486,10 -10,10 z"
           id="path3851"
           inkscape:connector-curvature="0"
           style="fill:#5f6062" /></g></g></g><g
     inkscape:groupmode="layer"
     id="layer4"
     inkscape:label="pause"
     style="display:none"><g
       transform="translate(-105.846,-142.467)"
       id="g4156"><path
         id="video-15_1_"
         d="m 117.846,144.467 c 5.514,0 10,4.486 10,10 0,5.515 -4.486,10 -10,10 -5.514,0 -10,-4.485 -10,-10 0,-5.513 4.487,-10 10,-10 z m 0,-2 c -6.627,0 -12,5.373 -12,12 0,6.627 5.373,12 12,12 6.627,0 12,-5.373 12,-12 0,-6.627 -5.373,-12 -12,-12 z"
         inkscape:connector-curvature="0"
         style="fill:#c3b600" /><path
         id="media-control-5"
         d="m 116.437,159.924 -2.729,0 0,-10.914 2.729,0 0,10.914 z m 5.547,-10.914 -2.729,0 0,10.914 2.729,0 0,-10.914 z"
         inkscape:connector-curvature="0"
         style="fill:#c3b600" /></g></g><g
     inkscape:groupmode="layer"
     id="layer3"
     inkscape:label="play"
     style="display:none"><path
       id="video-15"
       d="M 12,2 C 17.514,2 22,6.486 22,12 22,17.515 17.514,22 12,22 6.486,22 2,17.515 2,12 2,6.486 6.487,2 12,2 Z M 12,0 C 5.373,0 0,5.373 0,12 0,18.627 5.373,24 12,24 18.627,24 24,18.627 24,12 24,5.373 18.627,0 12,0 Z M 9,17 9,7 18,12.146 9,17 Z"
       inkscape:connector-curvature="0"
       style="fill:#c3b600" /></g></svg>